PathFileType	4	(X/Y/Z)	C:/Users/beibeiliu/ov580/test_trc/User1\sequence.11_training_dense_left.trc
DataRate	CameraRate	NumFrames	NumMarkers	Units	OrigDataRate	OrigDataStartFrame	OrigNumFrames
120	120	12	19	mm	120	299	341
Frame#	Time	ThumbCMC			ThumbMCP			ThumbIP			ThumbTip			IndexMCP			IndexPIP			IndexTip			MiddleMCP			MiddlePIP			MiddleTip			RingMCP			RingPIP			RingTip			PinkyMCP			PinkyPIP			PinkyTip			BackHand1			BackHand2			BackHand3	
		X0	Y0	Z0	X1	Y1	Z1	X2	Y2	Z2	X3	Y3	Z3	X4	Y4	Z4	X5	Y5	Z5	X6	Y6	Z6	X7	Y7	Z7	X8	Y8	Z8	X9	Y9	Z9	X10	Y10	Z10	X11	Y11	Z11	X12	Y12	Z12	X13	Y13	Z13	X14	Y14	Z14	X15	Y15	Z15	X16	Y16	Z16	X17	Y17	Z17	X18	Y18	Z18	
298	2.48333	-225.168	146.51	17.764	-197.837	151.902	-13.1495	-188.489	125.975	-33.1582	-181.72	98.9142	-30.0411	-242.215	126.003	-63.5177	-237.375	122.432	-88.3589	-233.009	117.597	-115.232	-244.199	100.744	-67.7755	-242.623	97.0548	-92.5279	-238.316	86.3697	-124.97	-232.801	79.6896	-58.947	-228.968	74.5111	-86.6456	-221.397	69.428	-106.612	-214.047	61.4675	-39.431	-205.158	52.9269	-56.8258	-203.38	45.1465	-74.7989	-243.2	84.5112	-0.205228	-248.743	83.9899	32.3628	-253.316	115.718	11.2643	
299	2.49167	-226.24	150.058	16.9649	-201.148	155.718	-9.63431	-187.885	134.169	-34.688	-179.547	102.954	-34.7585	-240.911	126.597	-64.0538	-237.946	122.247	-87.657	-231.593	117.565	-110.592	-243.018	97.3621	-68.3155	-241.739	96.2465	-92.0112	-238.288	91.6821	-120.88	-231.677	77.2581	-54.5679	-227.381	71.7674	-84.482	-221.803	72.5757	-106.675	-213.385	59.5572	-35.0856	-207.464	57.9111	-53.2547	-203.456	48.3107	-81.5143	-243.985	83.984	0.330701	-249.107	83.8269	31.5138	-252.536	117.155	10.4007	
300	2.5	-226.845	151.893	23.0282	-203.994	162.565	-10.7486	-190.258	147.913	-31.8351	-175.158	121.077	-39.2639	-240.742	126.27	-63.0732	-237.783	127.546	-87.7273	-230.28	116.407	-112.388	-241.997	98.422	-66.3212	-240.246	97.032	-93.4012	-235.697	93.1779	-121.673	-231.792	78.7263	-58.4531	-227.681	76.7048	-82.1021	-220.342	71.1236	-111.497	-212.594	60.282	-39.4833	-206.034	55.3855	-54.6364	-202.342	51.0825	-77.2007	-242.269	87.0057	0.366452	-250.554	88.9433	29.1645	-252.512	116.907	10.1804	
301	2.50833	-229.052	151.897	21.0564	-209.111	170.564	-6.68045	-192.092	166.312	-28.977	-175.407	147.36	-42.3522	-238.273	129.12	-59.4764	-235.638	127.986	-86.3451	-228.844	123.292	-113.148	-239.761	101.713	-63.4805	-236.278	97.4607	-97.0765	-231.783	90.6478	-122.269	-230.202	84.1203	-56.4531	-226.17	75.4923	-84.0792	-219.626	76.9884	-112.462	-213.325	61.1285	-38.6171	-205.148	56.7284	-56.3796	-202.097	53.2869	-79.1361	-241.715	84.6412	0.0925061	-250.585	87.1978	29.902	-253.857	121.534	9.51175	
302	2.51667	-233.219	155.817	23.7391	-216.619	177.773	-1.78013	-202.72	178.379	-22.5995	-180.451	169.024	-45.9954	-238.621	135.168	-59.9712	-235.113	130.488	-85.5975	-227.151	124.214	-115.313	-237.64	102.405	-67.3094	-233.78	100.486	-96.6483	-229.212	96.6701	-122.011	-228.743	84.1462	-60.7236	-223.655	76.7892	-83.2609	-217.178	76.7218	-112.246	-212.435	65.0923	-39.3195	-204.925	61.0416	-57.9694	-200.248	54.4806	-80.0069	-243.077	86.7701	-0.410009	-249.396	85.5967	30.085	-252.755	123.042	12.2615	
303	2.525	-236.73	153.14	25.9611	-226.866	179.901	2.38685	-213.776	183.561	-20.0252	-196.309	190.607	-40.9654	-237.382	131.12	-59.9554	-231.922	128.027	-88.3465	-225.589	124.527	-111.91	-236.803	103.517	-70.2416	-230.212	99.3763	-96.4074	-224.448	98.2942	-125.252	-225.643	82.3224	-56.7245	-221.489	82.8117	-83.364	-213.831	78.4735	-109.388	-211.761	68.0965	-38.4487	-200.984	59.241	-58.8074	-198.234	56.3816	-77.7189	-242.485	86.4732	-4.37888	-251.14	84.0523	27.1642	-253.913	120.218	11.504	
304	2.53333	-241.022	151.439	24.7298	-235.426	180.687	5.54239	-225.939	186.702	-20.02	-214.526	197.728	-39.3835	-235.813	132.752	-61.3888	-229.879	129.864	-88.7183	-223.232	123.804	-112.466	-233.205	101.768	-67.2228	-227.832	99.6696	-91.6573	-220.791	94.7345	-123.598	-223.337	84.4319	-61.0592	-218.415	83.2538	-87.0556	-210.63	78.7254	-106.165	-207.411	66.9364	-39.8195	-198.618	63.5231	-57.638	-195.365	56.8043	-79.2228	-243.913	87.8406	-1.00003	-249.563	88.6755	27.4678	-255.874	122.398	9.217	
305	2.54167	-244.983	150.405	23.7621	-240.183	174.251	7.52445	-237.384	191.107	-17.7268	-231.514	206.676	-33.7469	-235.623	136.144	-64.9817	-230.008	130.585	-86.7364	-222.257	125.619	-115.069	-232.612	102.463	-65.4116	-226.32	102.643	-92.5285	-218.755	99.4204	-124.293	-221.587	83.1554	-58.9922	-215.526	78.7624	-82.2997	-208.199	80.9193	-107.74	-206.697	65.4317	-35.7733	-197.184	62.2081	-56.3303	-191.017	58.1615	-80.9156	-241.253	85.8946	-2.44158	-251.001	82.7558	24.9227	-256.362	118.443	10.4618	
306	2.55	-246.853	147.651	27.5144	-244.638	171.933	7.07637	-246.098	190.007	-17.1265	-246.106	207.782	-26.0205	-234.376	132.033	-63.1689	-227.265	129.716	-89.2678	-220.167	125.848	-112.545	-231.225	102.975	-67.4767	-223.496	102.005	-93.7054	-214.92	99.8077	-125.568	-218.234	82.6124	-61.0686	-211.514	82.7382	-87.7537	-203.87	79.4465	-107.06	-205.507	69.2004	-37.9098	-192.707	64.8966	-57.3706	-185.64	59.0698	-78.0018	-241.263	85.3845	-5.32697	-250.552	82.0747	25.1203	-256.552	113.622	8.21617	
307	2.55833	-253.118	147.813	27.9706	-253.749	173.161	12.23	-254.113	187.299	-11.5109	-258.157	205.292	-23.9022	-236.079	133.146	-62.0264	-227.301	129.678	-86.3809	-219.048	125.057	-109.279	-227.6	102.337	-67.5166	-219.757	101.379	-96.8533	-211.004	100.217	-122.769	-216.445	86.7381	-61.2741	-207.971	85.6753	-85.4943	-198.303	80.6641	-105.701	-199.331	67.567	-38.1481	-189.304	65.4904	-54.2862	-178.698	60.5783	-78.4903	-238.25	82.6566	-3.82947	-249.66	81.7207	23.5333	-258.591	115.14	8.23517	
308	2.56667	-253.267	143.326	24.7946	-257.991	168.496	13.1985	-263.391	187.196	-7.90065	-266.5	202.466	-17.1307	-235.024	134.29	-61.2573	-228.607	134.124	-87.3433	-218.631	127.801	-109.385	-226.416	103.837	-66.7228	-216.946	105.537	-93.1416	-207.932	100.562	-119.333	-211.355	85.2671	-60.8191	-203.629	84.0597	-83.391	-194.84	86.8489	-105.062	-196.154	67.4861	-33.9932	-181.251	64.891	-53.9976	-175.016	61.2474	-73.6951	-237.978	84.1983	-4.90184	-246.361	77.3216	24.2399	-255.168	109.938	6.32732	
309	2.575	-255.755	140.626	24.1659	-259.158	162.665	10.3687	-267.832	182.148	-9.80267	-276.507	199.765	-20.2127	-234.584	132.853	-59.3731	-225.562	130.027	-84.9846	-219.396	128.037	-109.01	-224.468	107.007	-67.6728	-215.433	108.845	-91.4721	-203.349	102.683	-119.481	-208.895	85.0084	-57.3645	-200.137	88.8144	-83.8182	-188.749	86.3099	-109.174	-192.406	71.4391	-37.9049	-178.644	68.1451	-52.3944	-168.174	64.8863	-75.2738	-234.764	78.2402	-6.65135	-245.361	75.5814	26.1066	-255.28	107.332	3.30713	
